<svg xmlns="http://www.w3.org/2000/svg" viewBox="0 0 280 68" fill="none">
  <!-- ZjedzTo — Logo Horizontal / Dessert Mode / Light Background -->

  <!-- SIGNET: Dessert pink squircle -->
  <rect x="2" y="2" width="64" height="64" rx="20" fill="#E84B8A"/>

  <!-- Bowl -->
  <path d="M16 36 C16 36 18 52 33 52 C48 52 50 36 50 36" 
        stroke="#fff" stroke-width="3" stroke-linecap="round" fill="none"/>
  
  <!-- Fork: 3 rounded tines -->
  <line x1="26" y1="16" x2="26" y2="30" stroke="#fff" stroke-width="3" stroke-linecap="round"/>
  <line x1="33" y1="14" x2="33" y2="30" stroke="#fff" stroke-width="3" stroke-linecap="round"/>
  <line x1="40" y1="16" x2="40" y2="30" stroke="#fff" stroke-width="3" stroke-linecap="round"/>

  <!-- Steam (hearts for dessert mode ♡) -->
  <path d="M25 10 C25 8 23 6 25 4 C27 6 25 8 25 10Z" fill="#fff" opacity="0.5"/>
  <path d="M33 7 C33 5 31 3 33 1 C35 3 33 5 33 7Z" fill="#fff" opacity="0.4"/>
  <path d="M41 10 C41 8 39 6 41 4 C43 6 41 8 41 10Z" fill="#fff" opacity="0.5"/>

  <!-- WORDMARK -->
  <text x="80" y="46" font-family="'DM Sans','Helvetica Neue',Arial,sans-serif" font-weight="700" font-size="32" letter-spacing="-0.01em">
    <tspan fill="#1A1A2E">Zjedz</tspan><tspan fill="#E84B8A">To</tspan>
  </text>
</svg>
