<svg xmlns="http://www.w3.org/2000/svg" viewBox="0 0 140 140" fill="none">
  <!-- ZjedzTo — Stacked Logo / Dessert Mode -->

  <!-- SIGNET centered - dessert pink -->
  <rect x="38" y="4" width="64" height="64" rx="20" fill="#E84B8A"/>

  <!-- Bowl -->
  <path d="M52 40 C52 40 54 56 69 56 C84 56 86 40 86 40" 
        stroke="#fff" stroke-width="3" stroke-linecap="round" fill="none"/>
  
  <!-- Fork -->
  <line x1="62" y1="20" x2="62" y2="34" stroke="#fff" stroke-width="3" stroke-linecap="round"/>
  <line x1="69" y1="18" x2="69" y2="34" stroke="#fff" stroke-width="3" stroke-linecap="round"/>
  <line x1="76" y1="20" x2="76" y2="34" stroke="#fff" stroke-width="3" stroke-linecap="round"/>

  <!-- Hearts for dessert -->
  <path d="M61 14 C61 12 59 10 61 8 C63 10 61 12 61 14Z" fill="#fff" opacity="0.5"/>
  <path d="M69 11 C69 9 67 7 69 5 C71 7 69 9 69 11Z" fill="#fff" opacity="0.4"/>
  <path d="M77 14 C77 12 75 10 77 8 C79 10 77 12 77 14Z" fill="#fff" opacity="0.5"/>

  <!-- Wordmark -->
  <text x="70" y="96" text-anchor="middle" font-family="'DM Sans','Helvetica Neue',Arial,sans-serif" font-weight="700" font-size="26" letter-spacing="-0.01em">
    <tspan fill="#1A1A2E">Zjedz</tspan><tspan fill="#E84B8A">To</tspan>
  </text>

  <!-- Tagline -->
  <text x="70" y="116" text-anchor="middle" font-family="'Source Sans 3','Helvetica Neue',Arial,sans-serif" font-weight="400" font-size="11" fill="#6B7280" letter-spacing="0.06em">
    CHCĘ COŚ SŁODKIEGO!
  </text>
</svg>
