<svg xmlns="http://www.w3.org/2000/svg" viewBox="0 0 240 200" fill="none">
  <!-- Add Ingredients -->
  
  <!-- Bowl / container -->
  <path d="M60 90 Q60 140 120 145 Q180 140 180 90Z" fill="#F5F5F0" stroke="#E5E7EB" stroke-width="2"/>
  <ellipse cx="120" cy="90" rx="60" ry="14" fill="#F5F5F0" stroke="#E5E7EB" stroke-width="2"/>
  
  <!-- Plus icon floating above -->
  <circle cx="120" cy="55" r="18" fill="#FF6B35"/>
  <rect x="116" y="45" width="8" height="20" rx="3" fill="#fff"/>
  <rect x="110" y="51" width="20" height="8" rx="3" fill="#fff"/>
  
  <!-- Arrow down -->
  <path d="M120 76 L114 70 L126 70Z" fill="#FF6B35" opacity="0.5"/>
  <rect x="117.5" y="65" width="5" height="8" rx="1" fill="#FF6B35" opacity="0.5"/>
  
  <!-- Ingredient chips/tags floating in -->
  <!-- Tag 1 -->
  <rect x="30" y="100" width="50" height="22" rx="11" fill="#FFE0CC"/>
  <circle cx="42" cy="111" r="6" fill="#FF6347"/>
  <text x="57" y="115" font-family="'DM Sans',Arial,sans-serif" font-size="8" fill="#1A1A2E">pomidor</text>
  
  <!-- Tag 2 -->
  <rect x="160" y="95" width="50" height="22" rx="11" fill="#E8F5E9"/>
  <circle cx="172" cy="106" r="6" fill="#2ECC71"/>
  <text x="185" y="110" font-family="'DM Sans',Arial,sans-serif" font-size="8" fill="#1A1A2E">bazylia</text>
  
  <!-- Tag 3 -->
  <rect x="75" y="115" width="55" height="22" rx="11" fill="#FFF3E0"/>
  <circle cx="87" cy="126" r="6" fill="#FFD700"/>
  <text x="100" y="130" font-family="'DM Sans',Arial,sans-serif" font-size="8" fill="#1A1A2E">makaron</text>
  
  <!-- Tag 4 (faded, incoming) -->
  <rect x="140" y="120" width="45" height="22" rx="11" fill="#E5E7EB" opacity="0.5"/>
  <text x="150" y="135" font-family="'DM Sans',Arial,sans-serif" font-size="8" fill="#9CA3AF">+ dodaj</text>
  
  <!-- Sparkles -->
  <path d="M45 75 L47 70 L49 75 L54 77 L49 79 L47 84 L45 79 L40 77Z" fill="#FFD700" opacity="0.4"/>
  <path d="M185 70 L186 67 L187 70 L190 71 L187 72 L186 75 L185 72 L182 71Z" fill="#2ECC71" opacity="0.3"/>
  
  <!-- Text -->
  <text x="120" y="166" text-anchor="middle" font-family="'DM Sans',Arial,sans-serif" font-size="14" font-weight="600" fill="#1A1A2E">Dodaj składniki</text>
  <text x="120" y="184" text-anchor="middle" font-family="'Source Sans 3',Arial,sans-serif" font-size="11" fill="#9CA3AF">Wpisz co masz w lodówce</text>
</svg>
