<svg xmlns="http://www.w3.org/2000/svg" viewBox="0 0 64 64" fill="none">
  <!-- ZjedzTo — Icon / Dessert Mode -->

  <rect x="0" y="0" width="64" height="64" rx="20" fill="#E84B8A"/>

  <!-- Bowl -->
  <path d="M14 34 C14 34 16 50 32 50 C48 50 50 34 50 34" 
        stroke="#fff" stroke-width="3" stroke-linecap="round" fill="none"/>
  
  <!-- Fork: 3 rounded tines -->
  <line x1="25" y1="15" x2="25" y2="28" stroke="#fff" stroke-width="3" stroke-linecap="round"/>
  <line x1="32" y1="13" x2="32" y2="28" stroke="#fff" stroke-width="3" stroke-linecap="round"/>
  <line x1="39" y1="15" x2="39" y2="28" stroke="#fff" stroke-width="3" stroke-linecap="round"/>

  <!-- Hearts instead of steam for dessert -->
  <path d="M24 9 C24 7 22 5 24 3 C26 5 24 7 24 9Z" fill="#fff" opacity="0.5"/>
  <path d="M32 6 C32 4 30 2 32 0 C34 2 32 4 32 6Z" fill="#fff" opacity="0.4"/>
  <path d="M40 9 C40 7 38 5 40 3 C42 5 40 7 40 9Z" fill="#fff" opacity="0.5"/>
</svg>
